<?xml version="1.0" encoding="UTF-8"?>
<svg xmlns="http://www.w3.org/2000/svg" viewBox="0 0 1024 1024">
  <defs>
    <linearGradient id="background" x1="0" y1="0" x2="1" y2="1">
      <stop offset="0" stop-color="#17344f"/>
      <stop offset="1" stop-color="#24788b"/>
    </linearGradient>
    <linearGradient id="petal" x1="0" y1="0" x2="1" y2="1">
      <stop offset="0" stop-color="#fff0f5"/>
      <stop offset="1" stop-color="#f38eae"/>
    </linearGradient>
  </defs>

  <rect x="36" y="36" width="952" height="952" rx="210" fill="url(#background)"/>
  <rect x="58" y="58" width="908" height="908" rx="190"
        fill="none" stroke="#ffffff" stroke-opacity=".14" stroke-width="8"/>

  <g fill="none" stroke="#a7e0e4" stroke-opacity=".26" stroke-width="18">
    <path d="M110 330 C300 250 690 250 914 350"/>
    <path d="M86 610 C310 540 720 550 936 690"/>
    <path d="M320 92 C250 330 270 690 365 932"/>
    <path d="M680 86 C770 340 750 700 655 940"/>
  </g>

  <g transform="translate(512 500)" stroke="#ffffff" stroke-width="13"
     stroke-linejoin="round">
    <path d="M0 -70 C-58 -150 -45 -260 0 -315 C45 -260 58 -150 0 -70Z"
          fill="url(#petal)"/>
    <path d="M66 -22 C119 -106 225 -128 292 -99 C255 -35 164 24 66 33Z"
          fill="url(#petal)" transform="rotate(72)"/>
    <path d="M66 -22 C119 -106 225 -128 292 -99 C255 -35 164 24 66 33Z"
          fill="url(#petal)" transform="rotate(144)"/>
    <path d="M66 -22 C119 -106 225 -128 292 -99 C255 -35 164 24 66 33Z"
          fill="url(#petal)" transform="rotate(216)"/>
    <path d="M66 -22 C119 -106 225 -128 292 -99 C255 -35 164 24 66 33Z"
          fill="url(#petal)" transform="rotate(288)"/>
    <circle cx="0" cy="0" r="72" fill="#ffd56a"/>
    <circle cx="0" cy="0" r="25" fill="#ef8a72" stroke="none"/>
  </g>
</svg>

